<svg xmlns="http://www.w3.org/2000/svg" version="1.1" xmlns:xlink="http://www.w3.org/1999/xlink"
     xmlns:svgjs="http://svgjs.com/svgjs" width="1440" height="560" preserveAspectRatio="none" viewBox="0 0 1440 560">
    <g mask="url(&quot;#SvgjsMask1343&quot;)" fill="none">
        <g mask="url(&quot;#SvgjsMask1345&quot;)">
            <path d="M1362.5 287.5L1337.5 262.5M1312.5 312.5L1287.5 287.5L1262.5 287.5L1237.5 287.5M1462.5 287.5L1437.5 287.5L1412.5 287.5L1387.5 287.5L1362.5 287.5L1337.5 287.5L1312.5 312.5L1287.5 312.5L1262.5 312.5"
                  stroke="url(#SvgjsLinearGradient1344)" stroke-width="4.17"></path>
            <path d="M1256.25 312.5 a6.25 6.25 0 1 0 12.5 0 a6.25 6.25 0 1 0 -12.5 0zM1331.25 262.5 a6.25 6.25 0 1 0 12.5 0 a6.25 6.25 0 1 0 -12.5 0zM1231.25 287.5 a6.25 6.25 0 1 0 12.5 0 a6.25 6.25 0 1 0 -12.5 0z"
                  fill="url(#SvgjsLinearGradient1344)"></path>
            <path d="M1237.5 237.5L1212.5 262.5L1187.5 287.5L1162.5 287.5M1087.5 262.5L1062.5 262.5L1037.5 262.5L1012.5 262.5L987.5 262.5M1212.5 237.5L1187.5 237.5L1162.5 237.5L1137.5 237.5L1112.5 237.5M1062.5 287.5L1037.5 312.5L1012.5 337.5M1462.5 262.5L1437.5 262.5L1412.5 262.5L1387.5 262.5L1362.5 237.5L1337.5 237.5L1312.5 237.5L1287.5 237.5L1262.5 237.5L1237.5 237.5L1212.5 237.5L1187.5 262.5L1162.5 262.5L1137.5 262.5L1112.5 262.5L1087.5 262.5L1062.5 287.5L1037.5 287.5"
                  stroke="url(#SvgjsLinearGradient1344)" stroke-width="4.17"></path>
            <path d="M1031.25 287.5 a6.25 6.25 0 1 0 12.5 0 a6.25 6.25 0 1 0 -12.5 0zM1156.25 287.5 a6.25 6.25 0 1 0 12.5 0 a6.25 6.25 0 1 0 -12.5 0zM981.25 262.5 a6.25 6.25 0 1 0 12.5 0 a6.25 6.25 0 1 0 -12.5 0zM1106.25 237.5 a6.25 6.25 0 1 0 12.5 0 a6.25 6.25 0 1 0 -12.5 0zM1006.25 337.5 a6.25 6.25 0 1 0 12.5 0 a6.25 6.25 0 1 0 -12.5 0z"
                  fill="url(#SvgjsLinearGradient1344)"></path>
            <path d="M1237.5 337.5L1212.5 312.5L1187.5 312.5M1262.5 337.5L1237.5 362.5L1212.5 387.5L1187.5 387.5M1212.5 337.5L1187.5 337.5M1462.5 312.5L1437.5 312.5L1412.5 312.5L1387.5 312.5L1362.5 312.5L1337.5 312.5L1312.5 337.5L1287.5 337.5L1262.5 337.5L1237.5 337.5L1212.5 337.5L1187.5 362.5L1162.5 387.5L1137.5 387.5"
                  stroke="url(#SvgjsLinearGradient1344)" stroke-width="4.17"></path>
            <path d="M1131.25 387.5 a6.25 6.25 0 1 0 12.5 0 a6.25 6.25 0 1 0 -12.5 0zM1181.25 312.5 a6.25 6.25 0 1 0 12.5 0 a6.25 6.25 0 1 0 -12.5 0zM1181.25 387.5 a6.25 6.25 0 1 0 12.5 0 a6.25 6.25 0 1 0 -12.5 0zM1181.25 337.5 a6.25 6.25 0 1 0 12.5 0 a6.25 6.25 0 1 0 -12.5 0z"
                  fill="url(#SvgjsLinearGradient1344)"></path>
            <path d="M1087.5 212.5L1062.5 237.5M1037.5 212.5L1012.5 237.5L987.5 237.5L962.5 237.5L937.5 237.5M962.5 187.5L937.5 187.5L912.5 187.5M912.5 212.5L887.5 237.5L862.5 237.5L837.5 237.5L812.5 237.5M987.5 187.5L962.5 212.5M1462.5 237.5L1437.5 237.5L1412.5 237.5L1387.5 237.5L1362.5 212.5L1337.5 212.5L1312.5 212.5L1287.5 212.5L1262.5 212.5L1237.5 212.5L1212.5 212.5L1187.5 212.5L1162.5 212.5L1137.5 212.5L1112.5 212.5L1087.5 212.5L1062.5 212.5L1037.5 212.5L1012.5 212.5L987.5 187.5L962.5 187.5L937.5 212.5L912.5 212.5L887.5 212.5"
                  stroke="url(#SvgjsLinearGradient1344)" stroke-width="4.17"></path>
            <path d="M881.25 212.5 a6.25 6.25 0 1 0 12.5 0 a6.25 6.25 0 1 0 -12.5 0zM1056.25 237.5 a6.25 6.25 0 1 0 12.5 0 a6.25 6.25 0 1 0 -12.5 0zM931.25 237.5 a6.25 6.25 0 1 0 12.5 0 a6.25 6.25 0 1 0 -12.5 0zM906.25 187.5 a6.25 6.25 0 1 0 12.5 0 a6.25 6.25 0 1 0 -12.5 0zM806.25 237.5 a6.25 6.25 0 1 0 12.5 0 a6.25 6.25 0 1 0 -12.5 0zM956.25 212.5 a6.25 6.25 0 1 0 12.5 0 a6.25 6.25 0 1 0 -12.5 0z"
                  fill="url(#SvgjsLinearGradient1344)"></path>
            <path d="M1462.5 337.5L1437.5 337.5L1412.5 337.5L1387.5 337.5L1362.5 337.5L1337.5 337.5L1312.5 362.5L1287.5 362.5"
                  stroke="url(#SvgjsLinearGradient1344)" stroke-width="4.17"></path>
            <path d="M1281.25 362.5 a6.25 6.25 0 1 0 12.5 0 a6.25 6.25 0 1 0 -12.5 0z"
                  fill="url(#SvgjsLinearGradient1344)"></path>
            <path d="M787.5 137.5L762.5 162.5M862.5 137.5L837.5 162.5L812.5 162.5L787.5 162.5L762.5 187.5M912.5 162.5L887.5 137.5M887.5 162.5L862.5 162.5L837.5 187.5L812.5 187.5M1462.5 212.5L1437.5 212.5L1412.5 212.5L1387.5 212.5L1362.5 187.5L1337.5 187.5L1312.5 187.5L1287.5 187.5L1262.5 187.5L1237.5 187.5L1212.5 187.5L1187.5 187.5L1162.5 187.5L1137.5 187.5L1112.5 187.5L1087.5 187.5L1062.5 187.5L1037.5 187.5L1012.5 187.5L987.5 162.5L962.5 162.5L937.5 162.5L912.5 162.5L887.5 162.5L862.5 137.5L837.5 137.5L812.5 137.5L787.5 137.5L762.5 137.5"
                  stroke="url(#SvgjsLinearGradient1344)" stroke-width="4.17"></path>
            <path d="M756.25 137.5 a6.25 6.25 0 1 0 12.5 0 a6.25 6.25 0 1 0 -12.5 0zM756.25 162.5 a6.25 6.25 0 1 0 12.5 0 a6.25 6.25 0 1 0 -12.5 0zM756.25 187.5 a6.25 6.25 0 1 0 12.5 0 a6.25 6.25 0 1 0 -12.5 0zM881.25 137.5 a6.25 6.25 0 1 0 12.5 0 a6.25 6.25 0 1 0 -12.5 0zM806.25 187.5 a6.25 6.25 0 1 0 12.5 0 a6.25 6.25 0 1 0 -12.5 0z"
                  fill="url(#SvgjsLinearGradient1344)"></path>
            <path d="M1387.5 362.5L1362.5 362.5L1337.5 362.5M1462.5 362.5L1437.5 362.5L1412.5 362.5L1387.5 362.5L1362.5 387.5L1337.5 387.5L1312.5 387.5L1287.5 387.5L1262.5 387.5L1237.5 387.5"
                  stroke="url(#SvgjsLinearGradient1344)" stroke-width="4.17"></path>
            <path d="M1231.25 387.5 a6.25 6.25 0 1 0 12.5 0 a6.25 6.25 0 1 0 -12.5 0zM1331.25 362.5 a6.25 6.25 0 1 0 12.5 0 a6.25 6.25 0 1 0 -12.5 0z"
                  fill="url(#SvgjsLinearGradient1344)"></path>
            <path d="M912.5 112.5L887.5 87.5L862.5 87.5L837.5 87.5L812.5 87.5L787.5 87.5L762.5 87.5L737.5 87.5L712.5 62.5L687.5 62.5L662.5 62.5M962.5 137.5L937.5 112.5M737.5 112.5L712.5 112.5L687.5 137.5L662.5 137.5L637.5 137.5M1037.5 162.5L1012.5 137.5L987.5 112.5L962.5 112.5M1462.5 187.5L1437.5 187.5L1412.5 187.5L1387.5 187.5L1362.5 162.5L1337.5 162.5L1312.5 162.5L1287.5 162.5L1262.5 162.5L1237.5 162.5L1212.5 162.5L1187.5 162.5L1162.5 162.5L1137.5 162.5L1112.5 162.5L1087.5 162.5L1062.5 162.5L1037.5 162.5L1012.5 162.5L987.5 137.5L962.5 137.5L937.5 137.5L912.5 112.5L887.5 112.5L862.5 112.5L837.5 112.5L812.5 112.5L787.5 112.5L762.5 112.5L737.5 112.5L712.5 87.5"
                  stroke="url(#SvgjsLinearGradient1344)" stroke-width="4.17"></path>
            <path d="M706.25 87.5 a6.25 6.25 0 1 0 12.5 0 a6.25 6.25 0 1 0 -12.5 0zM656.25 62.5 a6.25 6.25 0 1 0 12.5 0 a6.25 6.25 0 1 0 -12.5 0zM931.25 112.5 a6.25 6.25 0 1 0 12.5 0 a6.25 6.25 0 1 0 -12.5 0zM631.25 137.5 a6.25 6.25 0 1 0 12.5 0 a6.25 6.25 0 1 0 -12.5 0zM956.25 112.5 a6.25 6.25 0 1 0 12.5 0 a6.25 6.25 0 1 0 -12.5 0z"
                  fill="url(#SvgjsLinearGradient1344)"></path>
            <path d="M1237.5 412.5L1212.5 437.5L1187.5 437.5L1162.5 437.5L1137.5 437.5M1337.5 412.5L1312.5 437.5L1287.5 437.5L1262.5 437.5L1237.5 437.5L1212.5 462.5M1087.5 412.5L1062.5 387.5L1037.5 387.5M987.5 437.5L962.5 437.5L937.5 437.5M962.5 462.5L937.5 487.5M1437.5 387.5L1412.5 412.5L1387.5 412.5L1362.5 437.5L1337.5 437.5L1312.5 462.5L1287.5 462.5M912.5 462.5L887.5 437.5M1462.5 387.5L1437.5 387.5L1412.5 387.5L1387.5 387.5L1362.5 412.5L1337.5 412.5L1312.5 412.5L1287.5 412.5L1262.5 412.5L1237.5 412.5L1212.5 412.5L1187.5 412.5L1162.5 412.5L1137.5 412.5L1112.5 412.5L1087.5 412.5L1062.5 412.5L1037.5 437.5L1012.5 437.5L987.5 437.5L962.5 462.5L937.5 462.5L912.5 462.5L887.5 462.5L862.5 462.5L837.5 437.5L812.5 437.5L787.5 437.5"
                  stroke="url(#SvgjsLinearGradient1344)" stroke-width="4.17"></path>
            <path d="M781.25 437.5 a6.25 6.25 0 1 0 12.5 0 a6.25 6.25 0 1 0 -12.5 0zM1131.25 437.5 a6.25 6.25 0 1 0 12.5 0 a6.25 6.25 0 1 0 -12.5 0zM1206.25 462.5 a6.25 6.25 0 1 0 12.5 0 a6.25 6.25 0 1 0 -12.5 0zM1031.25 387.5 a6.25 6.25 0 1 0 12.5 0 a6.25 6.25 0 1 0 -12.5 0zM931.25 437.5 a6.25 6.25 0 1 0 12.5 0 a6.25 6.25 0 1 0 -12.5 0zM931.25 487.5 a6.25 6.25 0 1 0 12.5 0 a6.25 6.25 0 1 0 -12.5 0zM1281.25 462.5 a6.25 6.25 0 1 0 12.5 0 a6.25 6.25 0 1 0 -12.5 0zM881.25 437.5 a6.25 6.25 0 1 0 12.5 0 a6.25 6.25 0 1 0 -12.5 0z"
                  fill="url(#SvgjsLinearGradient1344)"></path>
            <path d="M1437.5 162.5L1412.5 137.5L1387.5 112.5L1362.5 87.5L1337.5 87.5M1362.5 137.5L1337.5 112.5L1312.5 112.5M1112.5 137.5L1087.5 112.5L1062.5 112.5L1037.5 87.5M962.5 87.5L937.5 62.5M1262.5 137.5L1237.5 112.5L1212.5 112.5L1187.5 112.5M1037.5 112.5L1012.5 112.5M1137.5 137.5L1112.5 112.5L1087.5 87.5M1462.5 162.5L1437.5 162.5L1412.5 162.5L1387.5 137.5L1362.5 137.5L1337.5 137.5L1312.5 137.5L1287.5 137.5L1262.5 137.5L1237.5 137.5L1212.5 137.5L1187.5 137.5L1162.5 137.5L1137.5 137.5L1112.5 137.5L1087.5 137.5L1062.5 137.5L1037.5 112.5L1012.5 87.5L987.5 87.5L962.5 87.5L937.5 87.5L912.5 62.5L887.5 62.5L862.5 62.5L837.5 62.5L812.5 62.5L787.5 62.5"
                  stroke="url(#SvgjsLinearGradient1344)" stroke-width="4.17"></path>
            <path d="M781.25 62.5 a6.25 6.25 0 1 0 12.5 0 a6.25 6.25 0 1 0 -12.5 0zM1331.25 87.5 a6.25 6.25 0 1 0 12.5 0 a6.25 6.25 0 1 0 -12.5 0zM1306.25 112.5 a6.25 6.25 0 1 0 12.5 0 a6.25 6.25 0 1 0 -12.5 0zM1031.25 87.5 a6.25 6.25 0 1 0 12.5 0 a6.25 6.25 0 1 0 -12.5 0zM931.25 62.5 a6.25 6.25 0 1 0 12.5 0 a6.25 6.25 0 1 0 -12.5 0zM1181.25 112.5 a6.25 6.25 0 1 0 12.5 0 a6.25 6.25 0 1 0 -12.5 0zM1006.25 112.5 a6.25 6.25 0 1 0 12.5 0 a6.25 6.25 0 1 0 -12.5 0zM1081.25 87.5 a6.25 6.25 0 1 0 12.5 0 a6.25 6.25 0 1 0 -12.5 0z"
                  fill="url(#SvgjsLinearGradient1344)"></path>
        </g>
    </g>
    <defs>
        <mask id="SvgjsMask1343">
            <rect width="1440" height="560" fill="#ffffff"></rect>
        </mask>
        <linearGradient x1="460.79999999999995" y1="280" x2="1440" y2="280" gradientUnits="userSpaceOnUse"
                        id="SvgjsLinearGradient1344">
            <stop stop-color="#3a7cc3" offset="0"></stop>
            <stop stop-color="#dd1133" offset="1"></stop>
        </linearGradient>
        <mask id="SvgjsMask1345">
            <rect width="1440" height="560" fill="white"></rect>
            <path d="M1259.37 312.5 a3.13 3.13 0 1 0 6.26 0 a3.13 3.13 0 1 0 -6.26 0zM1334.37 262.5 a3.13 3.13 0 1 0 6.26 0 a3.13 3.13 0 1 0 -6.26 0zM1234.37 287.5 a3.13 3.13 0 1 0 6.26 0 a3.13 3.13 0 1 0 -6.26 0z"
                  fill="black"></path>
            <path d="M1034.37 287.5 a3.13 3.13 0 1 0 6.26 0 a3.13 3.13 0 1 0 -6.26 0zM1159.37 287.5 a3.13 3.13 0 1 0 6.26 0 a3.13 3.13 0 1 0 -6.26 0zM984.37 262.5 a3.13 3.13 0 1 0 6.26 0 a3.13 3.13 0 1 0 -6.26 0zM1109.37 237.5 a3.13 3.13 0 1 0 6.26 0 a3.13 3.13 0 1 0 -6.26 0zM1009.37 337.5 a3.13 3.13 0 1 0 6.26 0 a3.13 3.13 0 1 0 -6.26 0z"
                  fill="black"></path>
            <path d="M1134.37 387.5 a3.13 3.13 0 1 0 6.26 0 a3.13 3.13 0 1 0 -6.26 0zM1184.37 312.5 a3.13 3.13 0 1 0 6.26 0 a3.13 3.13 0 1 0 -6.26 0zM1184.37 387.5 a3.13 3.13 0 1 0 6.26 0 a3.13 3.13 0 1 0 -6.26 0zM1184.37 337.5 a3.13 3.13 0 1 0 6.26 0 a3.13 3.13 0 1 0 -6.26 0z"
                  fill="black"></path>
            <path d="M884.37 212.5 a3.13 3.13 0 1 0 6.26 0 a3.13 3.13 0 1 0 -6.26 0zM1059.37 237.5 a3.13 3.13 0 1 0 6.26 0 a3.13 3.13 0 1 0 -6.26 0zM934.37 237.5 a3.13 3.13 0 1 0 6.26 0 a3.13 3.13 0 1 0 -6.26 0zM909.37 187.5 a3.13 3.13 0 1 0 6.26 0 a3.13 3.13 0 1 0 -6.26 0zM809.37 237.5 a3.13 3.13 0 1 0 6.26 0 a3.13 3.13 0 1 0 -6.26 0zM959.37 212.5 a3.13 3.13 0 1 0 6.26 0 a3.13 3.13 0 1 0 -6.26 0z"
                  fill="black"></path>
            <path d="M1284.37 362.5 a3.13 3.13 0 1 0 6.26 0 a3.13 3.13 0 1 0 -6.26 0z" fill="black"></path>
            <path d="M759.37 137.5 a3.13 3.13 0 1 0 6.26 0 a3.13 3.13 0 1 0 -6.26 0zM759.37 162.5 a3.13 3.13 0 1 0 6.26 0 a3.13 3.13 0 1 0 -6.26 0zM759.37 187.5 a3.13 3.13 0 1 0 6.26 0 a3.13 3.13 0 1 0 -6.26 0zM884.37 137.5 a3.13 3.13 0 1 0 6.26 0 a3.13 3.13 0 1 0 -6.26 0zM809.37 187.5 a3.13 3.13 0 1 0 6.26 0 a3.13 3.13 0 1 0 -6.26 0z"
                  fill="black"></path>
            <path d="M1234.37 387.5 a3.13 3.13 0 1 0 6.26 0 a3.13 3.13 0 1 0 -6.26 0zM1334.37 362.5 a3.13 3.13 0 1 0 6.26 0 a3.13 3.13 0 1 0 -6.26 0z"
                  fill="black"></path>
            <path d="M709.37 87.5 a3.13 3.13 0 1 0 6.26 0 a3.13 3.13 0 1 0 -6.26 0zM659.37 62.5 a3.13 3.13 0 1 0 6.26 0 a3.13 3.13 0 1 0 -6.26 0zM934.37 112.5 a3.13 3.13 0 1 0 6.26 0 a3.13 3.13 0 1 0 -6.26 0zM634.37 137.5 a3.13 3.13 0 1 0 6.26 0 a3.13 3.13 0 1 0 -6.26 0zM959.37 112.5 a3.13 3.13 0 1 0 6.26 0 a3.13 3.13 0 1 0 -6.26 0z"
                  fill="black"></path>
            <path d="M784.37 437.5 a3.13 3.13 0 1 0 6.26 0 a3.13 3.13 0 1 0 -6.26 0zM1134.37 437.5 a3.13 3.13 0 1 0 6.26 0 a3.13 3.13 0 1 0 -6.26 0zM1209.37 462.5 a3.13 3.13 0 1 0 6.26 0 a3.13 3.13 0 1 0 -6.26 0zM1034.37 387.5 a3.13 3.13 0 1 0 6.26 0 a3.13 3.13 0 1 0 -6.26 0zM934.37 437.5 a3.13 3.13 0 1 0 6.26 0 a3.13 3.13 0 1 0 -6.26 0zM934.37 487.5 a3.13 3.13 0 1 0 6.26 0 a3.13 3.13 0 1 0 -6.26 0zM1284.37 462.5 a3.13 3.13 0 1 0 6.26 0 a3.13 3.13 0 1 0 -6.26 0zM884.37 437.5 a3.13 3.13 0 1 0 6.26 0 a3.13 3.13 0 1 0 -6.26 0z"
                  fill="black"></path>
            <path d="M784.37 62.5 a3.13 3.13 0 1 0 6.26 0 a3.13 3.13 0 1 0 -6.26 0zM1334.37 87.5 a3.13 3.13 0 1 0 6.26 0 a3.13 3.13 0 1 0 -6.26 0zM1309.37 112.5 a3.13 3.13 0 1 0 6.26 0 a3.13 3.13 0 1 0 -6.26 0zM1034.37 87.5 a3.13 3.13 0 1 0 6.26 0 a3.13 3.13 0 1 0 -6.26 0zM934.37 62.5 a3.13 3.13 0 1 0 6.26 0 a3.13 3.13 0 1 0 -6.26 0zM1184.37 112.5 a3.13 3.13 0 1 0 6.26 0 a3.13 3.13 0 1 0 -6.26 0zM1009.37 112.5 a3.13 3.13 0 1 0 6.26 0 a3.13 3.13 0 1 0 -6.26 0zM1084.37 87.5 a3.13 3.13 0 1 0 6.26 0 a3.13 3.13 0 1 0 -6.26 0z"
                  fill="black"></path>
        </mask>
    </defs>
</svg>