<svg xmlns="http://www.w3.org/2000/svg" version="1.1" xmlns:xlink="http://www.w3.org/1999/xlink"
     xmlns:svgjs="http://svgjs.com/svgjs" width="1440" height="560" preserveAspectRatio="none" viewBox="0 0 1440 560">
    <g mask="url(&quot;#SvgjsMask1024&quot;)" fill="none">
        <g mask="url(&quot;#SvgjsMask1026&quot;)">
            <path d="M1287.5 312.5L1262.5 287.5L1237.5 287.5M1387.5 312.5L1362.5 337.5L1337.5 337.5L1312.5 337.5L1287.5 337.5M987.5 337.5L962.5 312.5L937.5 312.5M1087.5 337.5L1062.5 312.5L1037.5 312.5M1337.5 312.5L1312.5 287.5L1287.5 287.5M1112.5 337.5L1087.5 312.5M1437.5 312.5L1412.5 287.5L1387.5 287.5L1362.5 287.5L1337.5 287.5M1462.5 287.5L1437.5 312.5L1412.5 312.5L1387.5 312.5L1362.5 312.5L1337.5 312.5L1312.5 312.5L1287.5 312.5L1262.5 312.5L1237.5 312.5L1212.5 312.5L1187.5 312.5L1162.5 312.5L1137.5 337.5L1112.5 337.5L1087.5 337.5L1062.5 337.5L1037.5 337.5L1012.5 337.5L987.5 337.5L962.5 337.5L937.5 337.5L912.5 337.5L887.5 337.5L862.5 337.5L837.5 337.5L812.5 337.5L787.5 337.5L762.5 337.5L737.5 337.5L712.5 337.5"
                  stroke="url(#SvgjsLinearGradient1025)" stroke-width="4.17"></path>
            <path d="M706.25 337.5 a6.25 6.25 0 1 0 12.5 0 a6.25 6.25 0 1 0 -12.5 0zM1231.25 287.5 a6.25 6.25 0 1 0 12.5 0 a6.25 6.25 0 1 0 -12.5 0zM1281.25 337.5 a6.25 6.25 0 1 0 12.5 0 a6.25 6.25 0 1 0 -12.5 0zM931.25 312.5 a6.25 6.25 0 1 0 12.5 0 a6.25 6.25 0 1 0 -12.5 0zM1031.25 312.5 a6.25 6.25 0 1 0 12.5 0 a6.25 6.25 0 1 0 -12.5 0zM1281.25 287.5 a6.25 6.25 0 1 0 12.5 0 a6.25 6.25 0 1 0 -12.5 0zM1081.25 312.5 a6.25 6.25 0 1 0 12.5 0 a6.25 6.25 0 1 0 -12.5 0zM1331.25 287.5 a6.25 6.25 0 1 0 12.5 0 a6.25 6.25 0 1 0 -12.5 0z"
                  fill="url(#SvgjsLinearGradient1025)"></path>
            <path d="M1287.5 262.5L1262.5 262.5M1237.5 237.5L1212.5 262.5L1187.5 262.5L1162.5 262.5L1137.5 262.5M1162.5 237.5L1137.5 237.5L1112.5 237.5M1462.5 262.5L1437.5 262.5L1412.5 262.5L1387.5 262.5L1362.5 262.5L1337.5 262.5L1312.5 262.5L1287.5 262.5L1262.5 237.5L1237.5 237.5L1212.5 237.5L1187.5 237.5L1162.5 237.5L1137.5 212.5"
                  stroke="url(#SvgjsLinearGradient1025)" stroke-width="4.17"></path>
            <path d="M1131.25 212.5 a6.25 6.25 0 1 0 12.5 0 a6.25 6.25 0 1 0 -12.5 0zM1256.25 262.5 a6.25 6.25 0 1 0 12.5 0 a6.25 6.25 0 1 0 -12.5 0zM1131.25 262.5 a6.25 6.25 0 1 0 12.5 0 a6.25 6.25 0 1 0 -12.5 0zM1106.25 237.5 a6.25 6.25 0 1 0 12.5 0 a6.25 6.25 0 1 0 -12.5 0z"
                  fill="url(#SvgjsLinearGradient1025)"></path>
            <path d="M1412.5 237.5L1387.5 237.5L1362.5 237.5L1337.5 237.5L1312.5 237.5M1462.5 237.5L1437.5 237.5L1412.5 237.5L1387.5 212.5L1362.5 212.5L1337.5 212.5L1312.5 212.5L1287.5 212.5L1262.5 212.5L1237.5 212.5"
                  stroke="url(#SvgjsLinearGradient1025)" stroke-width="4.17"></path>
            <path d="M1231.25 212.5 a6.25 6.25 0 1 0 12.5 0 a6.25 6.25 0 1 0 -12.5 0zM1306.25 237.5 a6.25 6.25 0 1 0 12.5 0 a6.25 6.25 0 1 0 -12.5 0z"
                  fill="url(#SvgjsLinearGradient1025)"></path>
            <path d="M1462.5 337.5L1437.5 337.5" stroke="url(#SvgjsLinearGradient1025)" stroke-width="4.17"></path>
            <path d="M1431.25 337.5 a6.25 6.25 0 1 0 12.5 0 a6.25 6.25 0 1 0 -12.5 0z"
                  fill="url(#SvgjsLinearGradient1025)"></path>
            <path d="M1237.5 187.5L1212.5 162.5L1187.5 162.5L1162.5 162.5L1137.5 162.5M1187.5 187.5L1162.5 212.5M1462.5 212.5L1437.5 212.5L1412.5 212.5L1387.5 187.5L1362.5 187.5L1337.5 187.5L1312.5 187.5L1287.5 187.5L1262.5 187.5L1237.5 187.5L1212.5 187.5L1187.5 187.5L1162.5 187.5L1137.5 187.5L1112.5 187.5"
                  stroke="url(#SvgjsLinearGradient1025)" stroke-width="4.17"></path>
            <path d="M1106.25 187.5 a6.25 6.25 0 1 0 12.5 0 a6.25 6.25 0 1 0 -12.5 0zM1131.25 162.5 a6.25 6.25 0 1 0 12.5 0 a6.25 6.25 0 1 0 -12.5 0zM1156.25 212.5 a6.25 6.25 0 1 0 12.5 0 a6.25 6.25 0 1 0 -12.5 0z"
                  fill="url(#SvgjsLinearGradient1025)"></path>
            <path d="M737.5 387.5L712.5 362.5L687.5 362.5L662.5 362.5M1212.5 337.5L1187.5 362.5L1162.5 362.5M762.5 387.5L737.5 362.5M662.5 387.5L637.5 412.5L612.5 412.5L587.5 412.5L562.5 412.5L537.5 412.5L512.5 412.5L487.5 412.5M987.5 362.5L962.5 387.5L937.5 387.5M587.5 362.5L562.5 387.5L537.5 387.5L512.5 387.5L487.5 387.5M912.5 362.5L887.5 387.5L862.5 387.5L837.5 387.5M1287.5 362.5L1262.5 362.5L1237.5 362.5L1212.5 362.5M1012.5 362.5L987.5 387.5L962.5 412.5L937.5 412.5M1462.5 362.5L1437.5 362.5L1412.5 362.5L1387.5 362.5L1362.5 362.5L1337.5 362.5L1312.5 362.5L1287.5 362.5L1262.5 337.5L1237.5 337.5L1212.5 337.5L1187.5 337.5L1162.5 337.5L1137.5 362.5L1112.5 362.5L1087.5 362.5L1062.5 362.5L1037.5 362.5L1012.5 362.5L987.5 362.5L962.5 362.5L937.5 362.5L912.5 362.5L887.5 362.5L862.5 362.5L837.5 362.5L812.5 387.5L787.5 387.5L762.5 387.5L737.5 387.5L712.5 387.5L687.5 387.5L662.5 387.5L637.5 387.5L612.5 362.5L587.5 362.5L562.5 362.5L537.5 362.5"
                  stroke="url(#SvgjsLinearGradient1025)" stroke-width="4.17"></path>
            <path d="M531.25 362.5 a6.25 6.25 0 1 0 12.5 0 a6.25 6.25 0 1 0 -12.5 0zM656.25 362.5 a6.25 6.25 0 1 0 12.5 0 a6.25 6.25 0 1 0 -12.5 0zM1156.25 362.5 a6.25 6.25 0 1 0 12.5 0 a6.25 6.25 0 1 0 -12.5 0zM731.25 362.5 a6.25 6.25 0 1 0 12.5 0 a6.25 6.25 0 1 0 -12.5 0zM481.25 412.5 a6.25 6.25 0 1 0 12.5 0 a6.25 6.25 0 1 0 -12.5 0zM931.25 387.5 a6.25 6.25 0 1 0 12.5 0 a6.25 6.25 0 1 0 -12.5 0zM481.25 387.5 a6.25 6.25 0 1 0 12.5 0 a6.25 6.25 0 1 0 -12.5 0zM831.25 387.5 a6.25 6.25 0 1 0 12.5 0 a6.25 6.25 0 1 0 -12.5 0zM1206.25 362.5 a6.25 6.25 0 1 0 12.5 0 a6.25 6.25 0 1 0 -12.5 0zM931.25 412.5 a6.25 6.25 0 1 0 12.5 0 a6.25 6.25 0 1 0 -12.5 0z"
                  fill="url(#SvgjsLinearGradient1025)"></path>
            <path d="M1262.5 162.5L1237.5 162.5M1287.5 162.5L1262.5 137.5L1237.5 112.5L1212.5 112.5L1187.5 112.5L1162.5 112.5L1137.5 112.5M862.5 112.5L837.5 87.5L812.5 87.5L787.5 87.5L762.5 62.5M1012.5 112.5L987.5 137.5L962.5 137.5L937.5 137.5L912.5 137.5L887.5 137.5L862.5 137.5L837.5 137.5L812.5 137.5L787.5 137.5L762.5 137.5M937.5 112.5L912.5 87.5L887.5 87.5M1087.5 112.5L1062.5 137.5L1037.5 137.5L1012.5 137.5L987.5 162.5L962.5 162.5L937.5 162.5L912.5 162.5L887.5 162.5M1462.5 187.5L1437.5 187.5L1412.5 187.5L1387.5 162.5L1362.5 162.5L1337.5 162.5L1312.5 162.5L1287.5 162.5L1262.5 162.5L1237.5 137.5L1212.5 137.5L1187.5 137.5L1162.5 137.5L1137.5 137.5L1112.5 137.5L1087.5 112.5L1062.5 112.5L1037.5 112.5L1012.5 112.5L987.5 112.5L962.5 112.5L937.5 112.5L912.5 112.5L887.5 112.5L862.5 112.5L837.5 112.5"
                  stroke="url(#SvgjsLinearGradient1025)" stroke-width="4.17"></path>
            <path d="M831.25 112.5 a6.25 6.25 0 1 0 12.5 0 a6.25 6.25 0 1 0 -12.5 0zM1231.25 162.5 a6.25 6.25 0 1 0 12.5 0 a6.25 6.25 0 1 0 -12.5 0zM1131.25 112.5 a6.25 6.25 0 1 0 12.5 0 a6.25 6.25 0 1 0 -12.5 0zM756.25 62.5 a6.25 6.25 0 1 0 12.5 0 a6.25 6.25 0 1 0 -12.5 0zM756.25 137.5 a6.25 6.25 0 1 0 12.5 0 a6.25 6.25 0 1 0 -12.5 0zM881.25 87.5 a6.25 6.25 0 1 0 12.5 0 a6.25 6.25 0 1 0 -12.5 0zM881.25 162.5 a6.25 6.25 0 1 0 12.5 0 a6.25 6.25 0 1 0 -12.5 0z"
                  fill="url(#SvgjsLinearGradient1025)"></path>
            <path d="M1012.5 437.5L987.5 412.5M1187.5 387.5L1162.5 412.5L1137.5 412.5M1062.5 387.5L1037.5 387.5L1012.5 387.5M812.5 437.5L787.5 462.5L762.5 462.5L737.5 487.5L712.5 487.5L687.5 487.5L662.5 462.5L637.5 462.5L612.5 462.5L587.5 462.5L562.5 462.5M837.5 437.5L812.5 412.5L787.5 412.5M1387.5 387.5L1362.5 412.5L1337.5 412.5L1312.5 412.5L1287.5 412.5L1262.5 412.5L1237.5 412.5M1212.5 387.5L1187.5 412.5L1162.5 437.5L1137.5 437.5L1112.5 437.5L1087.5 437.5L1062.5 437.5M1462.5 387.5L1437.5 387.5L1412.5 387.5L1387.5 387.5L1362.5 387.5L1337.5 387.5L1312.5 387.5L1287.5 387.5L1262.5 387.5L1237.5 387.5L1212.5 387.5L1187.5 387.5L1162.5 387.5L1137.5 387.5L1112.5 387.5L1087.5 387.5L1062.5 387.5L1037.5 412.5L1012.5 437.5L987.5 437.5L962.5 437.5L937.5 437.5L912.5 437.5L887.5 437.5L862.5 437.5L837.5 437.5L812.5 437.5L787.5 437.5L762.5 437.5L737.5 437.5L712.5 437.5"
                  stroke="url(#SvgjsLinearGradient1025)" stroke-width="4.17"></path>
            <path d="M706.25 437.5 a6.25 6.25 0 1 0 12.5 0 a6.25 6.25 0 1 0 -12.5 0zM981.25 412.5 a6.25 6.25 0 1 0 12.5 0 a6.25 6.25 0 1 0 -12.5 0zM1131.25 412.5 a6.25 6.25 0 1 0 12.5 0 a6.25 6.25 0 1 0 -12.5 0zM1006.25 387.5 a6.25 6.25 0 1 0 12.5 0 a6.25 6.25 0 1 0 -12.5 0zM556.25 462.5 a6.25 6.25 0 1 0 12.5 0 a6.25 6.25 0 1 0 -12.5 0zM781.25 412.5 a6.25 6.25 0 1 0 12.5 0 a6.25 6.25 0 1 0 -12.5 0zM1231.25 412.5 a6.25 6.25 0 1 0 12.5 0 a6.25 6.25 0 1 0 -12.5 0zM1056.25 437.5 a6.25 6.25 0 1 0 12.5 0 a6.25 6.25 0 1 0 -12.5 0z"
                  fill="url(#SvgjsLinearGradient1025)"></path>
            <path d="M1287.5 87.5L1262.5 112.5M1162.5 87.5L1137.5 62.5L1112.5 62.5L1087.5 62.5L1062.5 62.5L1037.5 62.5M1212.5 87.5L1187.5 62.5L1162.5 62.5M1462.5 162.5L1437.5 162.5L1412.5 162.5L1387.5 137.5L1362.5 137.5L1337.5 112.5L1312.5 87.5L1287.5 87.5L1262.5 87.5L1237.5 87.5L1212.5 87.5L1187.5 87.5L1162.5 87.5L1137.5 87.5L1112.5 112.5"
                  stroke="url(#SvgjsLinearGradient1025)" stroke-width="4.17"></path>
            <path d="M1106.25 112.5 a6.25 6.25 0 1 0 12.5 0 a6.25 6.25 0 1 0 -12.5 0zM1256.25 112.5 a6.25 6.25 0 1 0 12.5 0 a6.25 6.25 0 1 0 -12.5 0zM1031.25 62.5 a6.25 6.25 0 1 0 12.5 0 a6.25 6.25 0 1 0 -12.5 0zM1156.25 62.5 a6.25 6.25 0 1 0 12.5 0 a6.25 6.25 0 1 0 -12.5 0z"
                  fill="url(#SvgjsLinearGradient1025)"></path>
        </g>
    </g>
    <defs>
        <mask id="SvgjsMask1024">
            <rect width="1440" height="560" fill="#ffffff"></rect>
        </mask>
        <linearGradient x1="432" y1="280" x2="1440" y2="280" gradientUnits="userSpaceOnUse"
                        id="SvgjsLinearGradient1025">
            <stop stop-color="#3a7cc3" offset="0"></stop>
            <stop stop-color="rgba(221, 17, 51, 1)" offset="1"></stop>
        </linearGradient>
        <mask id="SvgjsMask1026">
            <rect width="1440" height="560" fill="white"></rect>
            <path d="M709.37 337.5 a3.13 3.13 0 1 0 6.26 0 a3.13 3.13 0 1 0 -6.26 0zM1234.37 287.5 a3.13 3.13 0 1 0 6.26 0 a3.13 3.13 0 1 0 -6.26 0zM1284.37 337.5 a3.13 3.13 0 1 0 6.26 0 a3.13 3.13 0 1 0 -6.26 0zM934.37 312.5 a3.13 3.13 0 1 0 6.26 0 a3.13 3.13 0 1 0 -6.26 0zM1034.37 312.5 a3.13 3.13 0 1 0 6.26 0 a3.13 3.13 0 1 0 -6.26 0zM1284.37 287.5 a3.13 3.13 0 1 0 6.26 0 a3.13 3.13 0 1 0 -6.26 0zM1084.37 312.5 a3.13 3.13 0 1 0 6.26 0 a3.13 3.13 0 1 0 -6.26 0zM1334.37 287.5 a3.13 3.13 0 1 0 6.26 0 a3.13 3.13 0 1 0 -6.26 0z"
                  fill="black"></path>
            <path d="M1134.37 212.5 a3.13 3.13 0 1 0 6.26 0 a3.13 3.13 0 1 0 -6.26 0zM1259.37 262.5 a3.13 3.13 0 1 0 6.26 0 a3.13 3.13 0 1 0 -6.26 0zM1134.37 262.5 a3.13 3.13 0 1 0 6.26 0 a3.13 3.13 0 1 0 -6.26 0zM1109.37 237.5 a3.13 3.13 0 1 0 6.26 0 a3.13 3.13 0 1 0 -6.26 0z"
                  fill="black"></path>
            <path d="M1234.37 212.5 a3.13 3.13 0 1 0 6.26 0 a3.13 3.13 0 1 0 -6.26 0zM1309.37 237.5 a3.13 3.13 0 1 0 6.26 0 a3.13 3.13 0 1 0 -6.26 0z"
                  fill="black"></path>
            <path d="M1434.37 337.5 a3.13 3.13 0 1 0 6.26 0 a3.13 3.13 0 1 0 -6.26 0z" fill="black"></path>
            <path d="M1109.37 187.5 a3.13 3.13 0 1 0 6.26 0 a3.13 3.13 0 1 0 -6.26 0zM1134.37 162.5 a3.13 3.13 0 1 0 6.26 0 a3.13 3.13 0 1 0 -6.26 0zM1159.37 212.5 a3.13 3.13 0 1 0 6.26 0 a3.13 3.13 0 1 0 -6.26 0z"
                  fill="black"></path>
            <path d="M534.37 362.5 a3.13 3.13 0 1 0 6.26 0 a3.13 3.13 0 1 0 -6.26 0zM659.37 362.5 a3.13 3.13 0 1 0 6.26 0 a3.13 3.13 0 1 0 -6.26 0zM1159.37 362.5 a3.13 3.13 0 1 0 6.26 0 a3.13 3.13 0 1 0 -6.26 0zM734.37 362.5 a3.13 3.13 0 1 0 6.26 0 a3.13 3.13 0 1 0 -6.26 0zM484.37 412.5 a3.13 3.13 0 1 0 6.26 0 a3.13 3.13 0 1 0 -6.26 0zM934.37 387.5 a3.13 3.13 0 1 0 6.26 0 a3.13 3.13 0 1 0 -6.26 0zM484.37 387.5 a3.13 3.13 0 1 0 6.26 0 a3.13 3.13 0 1 0 -6.26 0zM834.37 387.5 a3.13 3.13 0 1 0 6.26 0 a3.13 3.13 0 1 0 -6.26 0zM1209.37 362.5 a3.13 3.13 0 1 0 6.26 0 a3.13 3.13 0 1 0 -6.26 0zM934.37 412.5 a3.13 3.13 0 1 0 6.26 0 a3.13 3.13 0 1 0 -6.26 0z"
                  fill="black"></path>
            <path d="M834.37 112.5 a3.13 3.13 0 1 0 6.26 0 a3.13 3.13 0 1 0 -6.26 0zM1234.37 162.5 a3.13 3.13 0 1 0 6.26 0 a3.13 3.13 0 1 0 -6.26 0zM1134.37 112.5 a3.13 3.13 0 1 0 6.26 0 a3.13 3.13 0 1 0 -6.26 0zM759.37 62.5 a3.13 3.13 0 1 0 6.26 0 a3.13 3.13 0 1 0 -6.26 0zM759.37 137.5 a3.13 3.13 0 1 0 6.26 0 a3.13 3.13 0 1 0 -6.26 0zM884.37 87.5 a3.13 3.13 0 1 0 6.26 0 a3.13 3.13 0 1 0 -6.26 0zM884.37 162.5 a3.13 3.13 0 1 0 6.26 0 a3.13 3.13 0 1 0 -6.26 0z"
                  fill="black"></path>
            <path d="M709.37 437.5 a3.13 3.13 0 1 0 6.26 0 a3.13 3.13 0 1 0 -6.26 0zM984.37 412.5 a3.13 3.13 0 1 0 6.26 0 a3.13 3.13 0 1 0 -6.26 0zM1134.37 412.5 a3.13 3.13 0 1 0 6.26 0 a3.13 3.13 0 1 0 -6.26 0zM1009.37 387.5 a3.13 3.13 0 1 0 6.26 0 a3.13 3.13 0 1 0 -6.26 0zM559.37 462.5 a3.13 3.13 0 1 0 6.26 0 a3.13 3.13 0 1 0 -6.26 0zM784.37 412.5 a3.13 3.13 0 1 0 6.26 0 a3.13 3.13 0 1 0 -6.26 0zM1234.37 412.5 a3.13 3.13 0 1 0 6.26 0 a3.13 3.13 0 1 0 -6.26 0zM1059.37 437.5 a3.13 3.13 0 1 0 6.26 0 a3.13 3.13 0 1 0 -6.26 0z"
                  fill="black"></path>
            <path d="M1109.37 112.5 a3.13 3.13 0 1 0 6.26 0 a3.13 3.13 0 1 0 -6.26 0zM1259.37 112.5 a3.13 3.13 0 1 0 6.26 0 a3.13 3.13 0 1 0 -6.26 0zM1034.37 62.5 a3.13 3.13 0 1 0 6.26 0 a3.13 3.13 0 1 0 -6.26 0zM1159.37 62.5 a3.13 3.13 0 1 0 6.26 0 a3.13 3.13 0 1 0 -6.26 0z"
                  fill="black"></path>
        </mask>
    </defs>
</svg>